<svg width="170" height="29" fill="none" xmlns="http://www.w3.org/2000/svg"><path fill-rule="evenodd" clip-rule="evenodd" d="M96.988 2.153c.162-.043.319-.102.351-.13a.179.179 0 0 1 .108-.048.23.23 0 0 1 .124.065c.054.054.065.626.065 2.59 0 2.197.01 2.531.08 2.553.044.016.821.027 1.728.027.988 0 1.689.022 1.754.054.102.054.108.108.108 1.538 0 1.479 0 1.484-.124 1.565-.097.07-.389.081-1.776.081-1.608 0-1.662.005-1.716.108-.032.07-.054 1.128-.054 2.844 0 2.412.01 2.796.097 3.2.06.281.146.53.227.642.075.103.232.265.35.357.12.097.373.21.567.264.254.07.62.108 1.322.124.605.022.999.054 1.042.092.054.043.07.394.065 1.527 0 1.474 0 1.474-.124 1.538-.087.044-.497.054-1.468.027-.761-.016-1.414-.054-1.5-.086a2.796 2.796 0 0 0-.513-.113 3.58 3.58 0 0 1-.632-.162 6.06 6.06 0 0 1-.458-.19l-.019-.008a8.652 8.652 0 0 1-.386-.19 4.968 4.968 0 0 1-.54-.373 4.231 4.231 0 0 1-.626-.648 4.743 4.743 0 0 1-.712-1.343 4.158 4.158 0 0 1-.146-.594l-.045-.241a12.564 12.564 0 0 0-.074-.38c-.032-.15-.07-1.624-.124-6.368l-1.295-.016c-.918-.011-1.317-.033-1.365-.081-.054-.049-.07-.41-.065-1.592 0-.837.005-1.527.01-1.533.011-.005.621-.027 2.715-.07l.027-2.002c.022-1.679.038-2.019.108-2.089.043-.054.167-.108.27-.124a1.37 1.37 0 0 0 .324-.102c.075-.038.232-.087.35-.108.12-.022.243-.054.27-.081a1.74 1.74 0 0 1 .351-.124l.217-.064c.15-.044.326-.094.458-.136.132-.042.307-.093.458-.136l.216-.064ZM39.486 7.161c.33-.064.702-.124.836-.135.135-.01.583-.005.999.006.415.016.863.06.998.102.135.044.308.076.394.076.081 0 .346.07.594.156l.658.238c.119.048.324.146.459.221.135.076.302.167.378.205.075.038.21.119.297.178.091.06.2.14.242.173l.175.142.23.187c.178.146.453.405.615.583.162.173.346.405.416.507.07.103.2.292.291.416.087.13.162.248.162.27-.005.027.033.08.081.124.043.043.097.14.114.216a.575.575 0 0 0 .102.216.59.59 0 0 1 .103.226c.027.135.01.162-.195.254-.13.06-.35.146-.502.194-.09.03-.213.069-.326.104l-.186.058c-.135.043-.562.189-.945.324-.383.14-.804.264-.928.275-.205.022-.237.006-.286-.113a3.237 3.237 0 0 0-.248-.421 5.514 5.514 0 0 0-.34-.437 4.73 4.73 0 0 0-.464-.4 3.789 3.789 0 0 0-.567-.367 7.468 7.468 0 0 0-.62-.232c-.298-.091-.513-.113-.999-.113-.507 0-.69.022-1.025.13-.222.07-.513.183-.648.253s-.313.173-.405.232c-.091.06-.34.286-.55.502a2.63 2.63 0 0 0-.637.907c-.189.405-.264.647-.35 1.144-.06.35-.098.723-.082.826.016.102.07.404.119.674.06.33.156.626.297.918.118.237.302.54.41.674.102.135.302.346.437.475.135.124.394.319.572.421.178.108.507.254.729.33.35.123.496.14 1.133.145.626 0 .777-.016 1.08-.124.194-.065.42-.162.512-.205a5.93 5.93 0 0 0 .432-.26 4.1 4.1 0 0 0 .61-.544c.188-.205.377-.432.415-.508a7.99 7.99 0 0 0 .162-.313c.065-.14.113-.172.26-.172.09.005.269.048.388.108.118.059.259.102.313.108.048 0 .167.037.253.08.087.044.254.103.362.136.113.027.35.097.529.161a6 6 0 0 1 .431.162c.06.027.206.076.324.103.119.032.297.108.394.167.092.06.173.124.173.146 0 .027-.113.259-.248.529a5.155 5.155 0 0 1-.421.701c-.092.119-.216.292-.276.378a5.193 5.193 0 0 1-.399.48 9.657 9.657 0 0 1-.712.648l-.13.102c-.181.143-.347.273-.4.308a3.123 3.123 0 0 1-.274.162l-.069.035c-.11.055-.291.147-.455.224-.2.097-.404.2-.448.221a6.75 6.75 0 0 1-.54.178 8.56 8.56 0 0 1-.755.2 12.77 12.77 0 0 1-.81.119 8.84 8.84 0 0 1-1.079.032 9.931 9.931 0 0 1-1.052-.119 12.65 12.65 0 0 1-.945-.232 6.734 6.734 0 0 1-.54-.178c-.025-.013-.102-.047-.198-.09l-.206-.093a4.823 4.823 0 0 1-.405-.189 1.282 1.282 0 0 0-.216-.119 7.58 7.58 0 0 1-.566-.388c-.238-.178-.513-.4-.616-.491a7.524 7.524 0 0 1-.377-.357 7.534 7.534 0 0 1-.356-.377 7.186 7.186 0 0 1-1.128-1.91 8.268 8.268 0 0 1-.238-.73 9.245 9.245 0 0 1-.2-1.052 11.5 11.5 0 0 1-.08-.863c0-.119.037-.518.086-.89.048-.373.135-.816.189-.988.06-.168.102-.34.102-.378.006-.032.049-.162.108-.28.06-.12.103-.244.108-.27 0-.033.087-.227.194-.432a8.86 8.86 0 0 1 .427-.729 9 9 0 0 1 .572-.728c.183-.21.62-.6.96-.875a7.15 7.15 0 0 1 1.166-.76c.297-.146.631-.308.74-.357.113-.048.242-.086.286-.086a.899.899 0 0 0 .258-.081c.098-.043.438-.124.767-.184Zm17.485-.135c-.059.017-.253.076-.431.135a4.074 4.074 0 0 0-.572.227 3.17 3.17 0 0 0-.486.308c-.13.102-.34.291-.464.415-.13.13-.324.373-.432.545a9.819 9.819 0 0 0-.416.74 27.86 27.86 0 0 1-.302.62 1.763 1.763 0 0 0-.135.378c-.027.146-.048.167-.086.108-.027-.043-.049-.772-.043-1.62 0-1.192-.016-1.553-.07-1.602-.054-.054-.491-.065-1.797-.054l-1.727.01v13.925c3.033.021 3.47.01 3.524-.044.054-.054.07-.852.07-4.031-.006-3.783 0-3.988.102-4.414.06-.243.162-.546.227-.675.065-.124.21-.35.33-.497a2.86 2.86 0 0 1 .463-.458 3.95 3.95 0 0 1 .438-.286c.102-.054.372-.157.593-.232.356-.12.497-.135 1.187-.135.637 0 .87.021 1.242.118.253.07.502.108.556.087.086-.033.091-.162.08-1.7l-.016-1.657c-.388-.189-.566-.216-1.08-.221-.355-.011-.695-.006-.755.01Zm26.39.087a2.2 2.2 0 0 1 .405-.07c.195-.022.583-.027.864-.017.28.011.718.076.971.135.254.06.508.13.567.157.053.02.225.096.4.174l.059.026c.194.086.507.259.701.388.194.124.567.437.831.696.265.26.556.578.648.713l.061.086.043.06.106.15c.022.027.14.206.254.39.119.188.216.355.216.377 0 .027.049.146.108.27.06.13.156.334.216.458.06.13.13.351.156.502a2.5 2.5 0 0 0 .108.405c.027.076.103.4.162.729.081.431.113.82.113 1.43 0 .529-.032 1.014-.086 1.322-.048.264-.135.648-.189.847a2.89 2.89 0 0 0-.102.459c0 .054-.049.194-.103.313a36.03 36.03 0 0 0-.297.675c-.113.253-.356.69-.545.971a6.97 6.97 0 0 1-.907 1.052c-.307.297-.593.567-.636.594a8.555 8.555 0 0 1-.454.275c-.205.114-.55.276-.755.357a7.95 7.95 0 0 1-.81.237c-.323.075-.615.102-1.187.092-.54-.006-.826-.033-.998-.092a1.462 1.462 0 0 0-.34-.086c-.049 0-.292-.092-.535-.205a17.796 17.796 0 0 0-.502-.233 3.033 3.033 0 0 1-.323-.21 7.212 7.212 0 0 1-.697-.62 8.36 8.36 0 0 1-.518-.54c-.043-.06-.178-.254-.296-.432a11.64 11.64 0 0 1-.443-.783 11.263 11.263 0 0 1-.286-.62c-.027-.087-.076-.14-.097-.119-.022.027-.049 2.116-.092 9.24H75.59l-.027-19.402.119-.027c.07-.016.88-.022 3.47 0l.027 1.846c.016 1.014.043 1.861.065 1.889.021.021.065-.033.097-.12.032-.091.157-.355.275-.593.124-.237.275-.518.335-.62.065-.103.243-.362.394-.567.156-.21.41-.502.572-.653.156-.146.42-.367.583-.486.162-.119.502-.318.755-.442.254-.125.594-.249.756-.281.162-.032.324-.076.35-.097Zm25.959-.087c-.119.011-.432.06-.702.108a8.815 8.815 0 0 0-.809.19 3.014 3.014 0 0 1-.394.102c-.032 0-.157.038-.27.086-.108.049-.432.2-.712.34a6.729 6.729 0 0 0-1.026.648c-.28.216-.653.534-.825.701a6.084 6.084 0 0 0-.567.626c-.14.178-.308.4-.378.497a.907.907 0 0 0-.119.216c.006.027-.043.102-.097.178a3.226 3.226 0 0 0-.248.486 15.54 15.54 0 0 1-.227.523.938.938 0 0 0-.075.243 2.332 2.332 0 0 1-.086.286 3.368 3.368 0 0 0-.13.594l-.039.29c-.025.188-.054.403-.074.573-.049.405-.044.615.032 1.268.054.432.14.928.2 1.107a5 5 0 0 1 .102.377c0 .027.043.151.103.27.059.119.102.238.108.27 0 .027.102.248.221.486.124.237.313.55.416.701a8.453 8.453 0 0 0 .825.998c.076.076.243.222.367.325a17.617 17.617 0 0 0 .68.54c.178.134.383.274.459.312.076.033.173.087.216.119.043.027.226.113.405.189l.126.057.08.036c.096.043.172.077.198.09.044.022.286.103.54.178.254.076.702.184.998.238.378.07.788.102 1.377.102.588 0 .998-.032 1.376-.102.297-.054.647-.135.782-.178a7.35 7.35 0 0 1 .405-.119c.092-.021.243-.076.345-.119a13.3 13.3 0 0 0 .702-.34c.286-.14.723-.42.977-.615.253-.194.599-.491.777-.658.173-.162.475-.502.669-.756.2-.254.486-.712.642-1.025a11.1 11.1 0 0 0 .4-.89c.059-.179.167-.616.243-.972.118-.578.135-.745.113-1.538-.016-.659-.049-1.025-.135-1.403a11.72 11.72 0 0 0-.216-.81 9.77 9.77 0 0 0-.329-.755 18.267 18.267 0 0 0-.291-.567l-.036-.057-.001-.002a8.335 8.335 0 0 0-.136-.21 5.696 5.696 0 0 0-.292-.406 8.127 8.127 0 0 0-.431-.507 9.655 9.655 0 0 0-.734-.648c-.27-.21-.621-.469-.783-.577a6.637 6.637 0 0 0-.593-.33 15.154 15.154 0 0 0-.567-.247 9.08 9.08 0 0 0-.648-.216 11.35 11.35 0 0 0-.836-.195 8.989 8.989 0 0 0-1.161-.108 13.34 13.34 0 0 0-.917 0Zm18.241.087c.027-.016.211-.049.405-.07.194-.022.583-.033.863-.017.281.011.686.06.891.108.205.049.512.135.674.195.162.06.427.172.578.248l.187.097.25.13c.081.043.308.205.496.356.195.15.508.442.702.647.194.205.486.578.653.832.167.253.34.528.389.62.043.086.172.367.28.62.114.254.238.605.281.783.028.116.077.332.128.558l.001.002.081.358c.07.329.146.88.162 1.241a6.86 6.86 0 0 1-.027 1.133c-.038.265-.097.653-.135.864-.043.205-.118.545-.167.755a5.99 5.99 0 0 1-.162.54l-.016.038-.097.219-.065.148c-.059.135-.173.388-.254.566a5.543 5.543 0 0 1-.34.594l-.169.233h-.001c-.078.11-.16.222-.224.307a6.31 6.31 0 0 1-.545.599c-.183.178-.448.41-.582.512a2.93 2.93 0 0 1-.351.243l-.079.043-.299.162a6.24 6.24 0 0 1-.486.232c-.118.044-.432.14-.701.222-.427.118-.583.14-1.296.135-.512 0-.868-.027-.971-.065a2.533 2.533 0 0 0-.421-.119c-.14-.027-.464-.15-.723-.275a5.646 5.646 0 0 1-.772-.443 6.701 6.701 0 0 1-.556-.458 6.216 6.216 0 0 1-.566-.653 8.42 8.42 0 0 1-.384-.54.781.781 0 0 0-.024-.047l-.05-.096c-.072-.139-.182-.349-.287-.559-.162-.313-.292-.599-.292-.636 0-.033-.027-.054-.054-.038-.037.016-.053 1.597-.053 4.57 0 3.503-.011 4.566-.065 4.615-.049.054-.475.07-1.77.07-1.301 0-1.717-.016-1.771-.064-.053-.055-.064-1.997-.064-9.677 0-7.469.011-9.622.064-9.676.049-.049.475-.065 1.765-.065 1.306 0 1.722.016 1.776.065.048.054.065.485.065 1.862 0 1.144.021 1.807.053 1.824.027.016.054-.006.054-.043 0-.033.13-.313.286-.621.098-.195.202-.394.275-.534l.002-.003.001-.002.084-.163c.043-.08.173-.27.286-.415.069-.092.16-.206.241-.308a11 11 0 0 0 .137-.173 5.68 5.68 0 0 1 .604-.55c.238-.189.459-.367.486-.389.027-.027.264-.145.523-.27.265-.124.605-.253.756-.285.157-.027.313-.07.34-.092Zm14.382-.07c-.28.021-.534.054-.566.07-.033.021-.227.065-.432.097s-.55.124-.756.2c-.131.048-.295.106-.43.154l-.19.067a1.509 1.509 0 0 0-.324.14c-.043.033-.14.092-.216.135-.075.043-.183.103-.243.135a3.432 3.432 0 0 0-.297.194 7.18 7.18 0 0 0-.501.405 4.805 4.805 0 0 0-.545.567c-.13.162-.335.49-.465.728-.124.238-.264.55-.307.702a5.66 5.66 0 0 0-.103.415c-.016.13.006.162.178.238.114.049.4.119.637.156.238.044.491.098.567.124.075.027.27.07.432.092.161.022.356.065.431.092.076.027.34.086.594.135.254.043.507.08.567.086.07.006.135-.048.199-.178l.036-.075c.055-.118.138-.294.207-.432.092-.189.259-.416.421-.567.151-.135.383-.307.513-.378a3.567 3.567 0 0 1 1.43-.329 3.552 3.552 0 0 1 1.43.33c.13.07.34.232.47.356.134.135.253.313.286.431.027.114.054.335.054.486 0 .157-.033.367-.076.459a.88.88 0 0 1-.2.291 1.36 1.36 0 0 1-.399.205c-.151.054-.583.114-.971.14-.389.033-.859.076-1.053.109-.194.027-.615.075-.944.102a11.03 11.03 0 0 0-.999.146c-.221.048-.609.151-.863.226a5.305 5.305 0 0 0-.594.211.692.692 0 0 1-.189.07c-.027-.005-.248.103-.485.238-.238.13-.621.399-.853.593-.227.194-.416.373-.416.394.006.027-.091.173-.215.324-.119.156-.216.302-.216.324a.86.86 0 0 1-.103.232 4.052 4.052 0 0 0-.329 1.673c0 .313.027.664.059.782l.051.214.001.002v.002l.051.214a4.9 4.9 0 0 0 .28.67c.179.35.335.56.664.89.243.243.486.475.54.518.059.043.318.183.577.308.265.129.518.232.567.232.054 0 .205.032.34.08.135.044.486.098.783.114.296.016.696.005.89-.022.194-.032.534-.097.756-.145.221-.049.453-.125.512-.168a.412.412 0 0 1 .173-.075c.038 0 .259-.108.486-.238.275-.156.561-.388.831-.664a6.9 6.9 0 0 0 .599-.717c.108-.162.237-.389.28-.502.049-.108.103-.21.125-.221.027-.011.059-.108.081-.216.027-.108.059-.205.08-.216.027-.016.081-.006.125.021.07.043.086.281.097 1.468.016 1.01.038 1.43.081 1.457.037.022.815.044 1.737.044 1.269 0 1.695-.017 1.771-.065.091-.065.091-.313.075-4.765-.016-4.161-.027-4.744-.108-5.144a3.58 3.58 0 0 0-.14-.54 1.822 1.822 0 0 1-.108-.35 2.727 2.727 0 0 0-.254-.594 9.607 9.607 0 0 0-.34-.545 4.623 4.623 0 0 0-.464-.545 5.643 5.643 0 0 0-.782-.631c-.254-.168-.567-.346-.702-.394l-.286-.106h-.002l-.387-.143c-.237-.086-.501-.156-.593-.156a1.63 1.63 0 0 1-.405-.076c-.135-.037-.572-.086-.971-.102-.4-.01-.961-.01-1.242.01Zm-82.754.34c-.021-.087-.005-.124.06-.14.054-.011.912-.022 1.905-.028.993 0 1.83.017 1.862.038.027.022.097.157.145.308.054.145.12.378.146.512.033.135.119.46.194.729.081.264.179.62.222.783.038.161.135.512.21.782.076.264.173.62.216.783.043.162.124.464.184.674.053.184.127.458.177.642l.017.06c.043.178.119.442.162.593l.05.172.133.449c.065.194.114.389.114.432 0 .043.048.248.108.458.02.068.046.148.072.23v.001c.052.17.109.352.149.471.054.178.102.362.102.405 0 .043.043.237.103.432.06.194.151.518.21.728.06.205.157.545.216.756.04.137.087.309.125.448l.048.172.035.148.001.002.093.39c.038.162.098.345.125.405.032.06.075.216.097.35.021.135.054.276.075.314.022.053.07.032.178-.092.087-.092.151-.216.151-.275 0-.06.049-.249.103-.421.054-.168.156-.492.221-.713.065-.221.157-.512.2-.647.043-.135.108-.367.146-.513.043-.151.102-.345.13-.432.032-.091.107-.345.172-.566.07-.222.167-.54.216-.702.048-.162.145-.48.216-.702l.006-.023c.063-.216.135-.46.166-.543l.057-.188v-.001l.073-.243a9.58 9.58 0 0 1 .156-.54 68.064 68.064 0 0 0 .405-1.349c.065-.21.14-.453.173-.54l.02-.067c.03-.102.074-.248.104-.364.038-.151.097-.346.13-.432.017-.05.043-.131.07-.219h.001l.069-.213c.037-.117.088-.289.129-.428l.033-.111c.031-.126.096-.338.151-.517l.032-.104.073-.243.002-.005v-.002l.146-.479c.065-.21.151-.5.195-.647.043-.151.108-.286.145-.308.038-.021.831-.043 1.765-.043 1.285 0 1.727.016 1.803.065.086.06.091.086.032.205a2.437 2.437 0 0 0-.14.405 6.338 6.338 0 0 1-.106.39l-.013.041c-.031.084-.103.328-.166.544l-.007.023c-.07.221-.167.54-.216.702-.048.161-.145.48-.215.701-.065.221-.14.475-.173.567-.027.086-.097.318-.151.513a34.355 34.355 0 0 1-.325 1.086l-.107.344c-.065.205-.146.496-.183.647a2.04 2.04 0 0 1-.114.351c-.027.043-.075.2-.113.35-.038.146-.092.34-.124.432l-.02.065c-.035.11-.093.291-.137.448-.06.194-.162.534-.226.756-.065.221-.157.513-.2.647a9.839 9.839 0 0 0-.146.513 51.39 51.39 0 0 1-.13.432c-.03.083-.102.327-.165.542v.001l-.007.023c-.07.222-.167.54-.216.702-.048.162-.146.48-.216.702-.064.22-.14.475-.172.566-.028.087-.098.319-.152.513a32.538 32.538 0 0 1-.325 1.086l-.106.344c-.053.166-.115.387-.16.546l-.03.102c-.037.145-.096.34-.129.431-.023.062-.06.179-.097.296l-.043.136a14.75 14.75 0 0 0-.162.54c-.021.081-.06.208-.099.341v.001c-.031.105-.064.213-.09.305-.065.206-.156.513-.2.675a3.521 3.521 0 0 1-.15.459 1.712 1.712 0 0 0-.103.378c-.022.118-.081.296-.248.566h-1.754c-1.62 0-1.754-.005-1.792-.097-.016-.048-.005-.189.022-.307.032-.12.086-.292.113-.378.026-.074.08-.244.133-.414l.04-.126c.035-.126.086-.298.134-.46l.087-.296a24.8 24.8 0 0 1 .216-.663c.059-.151.102-.33.102-.389 0-.06.033-.189.076-.286a4.76 4.76 0 0 0 .162-.47c.043-.161.13-.469.194-.674.054-.192.126-.42.163-.537l.01-.03c.032-.102.043-.232.021-.286-.027-.086-.145-.091-1.381-.091-.794 0-1.393-.022-1.458-.054a.219.219 0 0 1-.107-.178 1.697 1.697 0 0 0-.087-.335 10.59 10.59 0 0 1-.156-.486l-.184-.637a49.861 49.861 0 0 1-.214-.69l-.007-.022-.107-.348-.001-.003v-.002l-.108-.349-.06-.195c-.053-.17-.112-.362-.15-.495a32.75 32.75 0 0 1-.125-.4 48.052 48.052 0 0 0-.097-.313l-.047-.154a29.59 29.59 0 0 1-.142-.466c-.043-.136-.13-.405-.188-.61a117.933 117.933 0 0 0-.324-1.063l-.108-.351-.011-.036v-.002l-.21-.68c-.063-.192-.155-.495-.215-.69l-.007-.022c-.036-.132-.093-.313-.142-.472l-.063-.203-.067-.218a29.846 29.846 0 0 1-.143-.473c-.065-.2-.162-.512-.216-.701-.06-.184-.157-.497-.216-.702-.065-.2-.162-.513-.216-.701-.05-.173-.144-.469-.209-.674l-.012-.039c-.041-.134-.09-.301-.13-.443v-.003l-.059-.201a9.375 9.375 0 0 1-.102-.394Zm90.402-.14c-.065.016-.081.053-.06.14.016.07.06.243.097.394.033.145.087.307.114.35.027.044.075.2.113.351.032.146.092.34.124.432l.068.21h.001l.072.222c.048.145.118.388.156.54l.072.24.001.003.001.002.056.186c.031.083.102.328.166.544l.006.023c.07.221.168.54.216.701.049.162.146.48.216.702.07.221.167.54.216.702l.112.36c.035.11.07.22.098.314.06.205.162.545.227.756l.06.192.001.004c.049.157.098.314.128.397.038.119.135.432.21.702l.04.13c.071.23.144.472.176.571.039.106.107.34.167.545v.002h.001l.021.074c.031.098.067.215.101.33l.001.003.001.002c.042.141.083.278.113.367.049.161.146.48.216.701.07.222.167.54.216.702.048.162.145.48.216.701.064.222.167.535.221.686.059.156.102.329.102.377 0 .055.027.136.054.179.044.064.286.086 1.468.108l1.42.027a1.19 1.19 0 0 1-.071.566 18.737 18.737 0 0 0-.349 1.13l-.001.001-.097.337a91.032 91.032 0 0 1-.211.69c-.046.139-.119.391-.18.6l-.03.102c-.065.222-.141.475-.173.567a8.841 8.841 0 0 0-.157.513c-.027.1-.061.216-.092.322l-.07.245c-.037.118-.053.259-.032.307.032.092.167.097 1.786.097h1.754c.168-.27.232-.437.249-.54a1.91 1.91 0 0 1 .108-.377c.037-.103.097-.302.129-.448.027-.14.076-.297.108-.35.027-.05.086-.228.13-.39.037-.161.129-.469.194-.674.026-.093.058-.201.09-.306.04-.133.078-.26.099-.342.043-.15.113-.394.162-.54l.019-.06.024-.076a8.13 8.13 0 0 1 .097-.295c.032-.092.092-.286.129-.432l.099-.34.09-.307c.065-.21.157-.513.2-.675.043-.162.097-.345.13-.405.027-.06.086-.243.124-.405.043-.162.102-.372.129-.458.033-.092.108-.346.173-.567.07-.221.167-.54.216-.701.048-.162.145-.48.216-.702l.006-.022.001-.003v-.002c.063-.215.134-.457.165-.54l.057-.19.033-.11.04-.131c.038-.152.102-.378.146-.513.043-.135.134-.427.199-.648.065-.221.168-.561.227-.755.044-.157.101-.34.136-.449l.02-.064c.033-.092.087-.286.125-.432.037-.15.086-.307.113-.35.027-.044.075-.206.113-.351.038-.152.119-.443.184-.648l.107-.345.119-.383c.06-.195.151-.508.205-.702.054-.194.125-.426.152-.513.032-.092.107-.345.172-.566.07-.222.168-.54.216-.702.049-.162.146-.48.216-.702l.006-.022.001-.002c.063-.216.134-.46.166-.542.027-.092.064-.2.081-.243.016-.049-.022-.097-.103-.119-.07-.021-.874-.043-1.797-.043-.923 0-1.7.022-1.738.043-.038.022-.102.157-.145.308-.031.119-.099.336-.157.526l-.001.001-.037.12-.071.24c-.046.154-.093.31-.118.408l-.032.111c-.041.14-.092.312-.13.429l-.068.212-.001.001a6.195 6.195 0 0 1-.071.218 4.87 4.87 0 0 0-.129.432 8.247 8.247 0 0 0-.059.204c-.041.142-.089.31-.13.444a37.108 37.108 0 0 0-.432 1.43c-.054.194-.124.42-.157.513l-.167.54-.086.292-.001.002a31.92 31.92 0 0 0-.134.46 90.116 90.116 0 0 0-.426 1.377 18.17 18.17 0 0 1-.173.567c-.027.086-.086.28-.119.431a2.074 2.074 0 0 1-.113.351 3.032 3.032 0 0 0-.141.432c-.048.194-.14.518-.205.729-.064.204-.156.496-.194.647a29.94 29.94 0 0 1-.156.513 4.785 4.785 0 0 0-.108.378.922.922 0 0 1-.141.27c-.059.075-.124.123-.135.107-.016-.016-.059-.172-.102-.35-.043-.179-.13-.497-.189-.702l-.115-.414-.001-.001-.002-.01-.055-.196a10.85 10.85 0 0 0-.072-.276l-.001-.001c-.028-.106-.059-.22-.083-.316a40.615 40.615 0 0 0-.151-.525l-.06-.204a3.278 3.278 0 0 1-.113-.448c0-.032-.043-.205-.103-.378a9.868 9.868 0 0 1-.161-.55 46.743 46.743 0 0 1-.146-.54 15.365 15.365 0 0 0-.216-.782c-.076-.27-.173-.62-.216-.783a23.627 23.627 0 0 0-.21-.782c-.076-.27-.173-.621-.216-.783a61.337 61.337 0 0 0-.216-.782c-.076-.27-.173-.621-.216-.783l-.021-.079a36.05 36.05 0 0 0-.162-.596l-.117-.416-.056-.204a29.782 29.782 0 0 0-.4-1.403l-.129-.405c-2.871-.01-3.745-.005-3.799.005Zm-67.606 3.264c-.194.06-.555.206-.804.335-.34.167-.561.33-.863.631-.308.308-.47.524-.642.864-.135.27-.276.653-.335.917-.054.254-.113.567-.13.702-.021.135-.01.41.022.62.027.211.086.524.124.702.038.178.162.507.275.729.114.22.303.529.427.674a3.7 3.7 0 0 0 .356.378c.075.06.173.146.216.189.043.043.156.13.248.189.092.06.275.162.405.226.135.065.41.168.62.238.319.097.497.119 1.107.113.62 0 .782-.021 1.08-.13.193-.07.42-.167.501-.215a.776.776 0 0 1 .173-.097c.016 0 .189-.13.388-.28.2-.157.464-.433.594-.61.13-.179.313-.492.415-.702.098-.21.21-.497.249-.648a15.2 15.2 0 0 0 .095-.407l.018-.079a4.441 4.441 0 0 0-.005-1.268 9.764 9.764 0 0 0-.125-.54 5.388 5.388 0 0 0-.285-.728c-.157-.313-.319-.534-.616-.837-.221-.226-.48-.458-.566-.512a4.305 4.305 0 0 0-.351-.205 5.754 5.754 0 0 0-.594-.232c-.34-.108-.502-.13-1.025-.13-.448.005-.718.038-.972.113Zm27.227-.075a.583.583 0 0 0-.162.07.875.875 0 0 1-.243.08 2.43 2.43 0 0 0-.485.2 4.897 4.897 0 0 0-.486.297 6.617 6.617 0 0 0-.513.475 3.49 3.49 0 0 0-.566.815 4.044 4.044 0 0 0-.335.94 6.274 6.274 0 0 0-.097.863c0 .221.038.599.086.836.043.238.135.567.2.729.059.162.146.334.183.378a.29.29 0 0 1 .07.15c0 .033.103.195.227.351.124.152.275.33.34.39.059.058.221.193.351.301.135.103.34.248.459.313.118.07.399.184.62.26.362.123.481.14 1.161.134.653-.005.804-.021 1.106-.135.194-.07.459-.183.594-.248a4.64 4.64 0 0 0 .566-.383 3.48 3.48 0 0 0 .529-.529c.108-.157.286-.443.399-.642.108-.205.227-.502.27-.664.043-.162.097-.394.124-.513.027-.118.049-.42.049-.674a4.62 4.62 0 0 0-.049-.702 11.01 11.01 0 0 0-.129-.54 5.911 5.911 0 0 0-.286-.701c-.151-.291-.324-.524-.637-.837-.318-.318-.54-.485-.836-.631a3.542 3.542 0 0 0-.567-.237.777.777 0 0 1-.238-.098c-.048-.037-.377-.064-.836-.07-.421-.005-.81.006-.869.022Zm16.298.35c.178-.086.481-.21.675-.27.27-.086.496-.113.998-.113.529-.005.713.017.999.114.194.065.48.178.636.253.152.076.421.26.594.405.167.146.405.389.524.545.118.151.242.319.28.378.038.06.124.232.195.378.07.15.145.356.167.459.021.102.075.286.119.404.064.168.075.383.059.945-.016.502-.059.847-.13 1.106a5.18 5.18 0 0 1-.318.783c-.151.291-.34.534-.669.863-.292.291-.567.513-.756.6-.162.08-.442.199-.62.269-.281.108-.421.124-1.053.119-.615 0-.788-.017-1.106-.125l-.072-.024a3.638 3.638 0 0 1-.387-.143 16.242 16.242 0 0 1-.378-.194c-.178-.086-.469-.324-.728-.583-.335-.335-.48-.534-.659-.89a5.066 5.066 0 0 1-.334-.956 4.87 4.87 0 0 1-.114-.917c0-.232.038-.561.081-.729a2.85 2.85 0 0 0 .081-.404c0-.054.103-.303.227-.556.124-.254.324-.583.443-.734a4 4 0 0 1 .41-.432c.102-.086.199-.173.216-.194a.575.575 0 0 1 .162-.119 9.44 9.44 0 0 1 .458-.237Zm19.202 4.345c-.081.043-.356.113-.61.156a45.592 45.592 0 0 1-1.862.232c-.264.033-.68.092-.917.136a3.41 3.41 0 0 0-.702.21 1.86 1.86 0 0 0-.453.313 1.748 1.748 0 0 0-.248.318 2.074 2.074 0 0 0-.135.378c-.06.21-.054.286.048.594.076.232.173.405.286.518.097.092.313.232.475.313.281.14.335.151.999.151.599-.005.75-.022 1.052-.135a5.75 5.75 0 0 0 .594-.254 3.91 3.91 0 0 0 .55-.361 3.51 3.51 0 0 0 .54-.518 4.16 4.16 0 0 0 .442-.713c.178-.377.205-.49.222-.896.016-.356 0-.469-.054-.496-.044-.016-.141.005-.227.054Z" fill="#000"/><path d="M167.164 5.075v.246h-.592v1.623h-.259V5.321h-.593v-.246h1.444Zm.234 1.869v-1.87h.308l.668 1.494.683-1.493h.262v1.87h-.26v-1.36l-.609 1.36h-.189l-.603-1.36v1.36h-.26Z" fill="#000"/><path d="M11.4.44c.461-.09.969-.18 1.127-.203.158-.022.496-.056 1.24-.079l.08 2.856c.033 1.557.022 3.047-.023 3.295-.045.248-.18.734-.316 1.072-.158.406-.451.835-.868 1.264-.373.384-.88.756-1.297.948-.52.248-.902.327-1.636.361-.676.045-1.116 0-1.522-.124-.304-.09-1.534-.688-2.707-1.32-1.172-.632-2.413-1.298-3.326-1.806l.372-.53c.192-.294.823-1.027 1.398-1.637.575-.61 1.094-1.106 1.162-1.106.056 0 1.026.485 2.142 1.072 1.117.587 2.064 1.072 2.12 1.072.046 0 .057-1.038-.033-4.604l.62-.18c.338-.102 1.004-.26 1.466-.35Z" fill="url(#a)"/><path d="M14.884 5.068a91.012 91.012 0 0 1-.09-3.352L14.781.158h.372c.192 0 .824.08 1.376.17.553.09 1.387.282 2.662.677l-.012.79c0 .44.034 1.49.08 2.347.056.847.123 1.546.18 1.546.045 0 .913-.508 1.94-1.128 1.026-.621 1.928-1.129 2.007-1.129.067-.011.598.463 1.15 1.038.564.576 1.196 1.31 1.399 1.614.304.463.35.587.225.689-.09.067-1.195.756-2.47 1.523-1.274.756-2.537 1.467-2.819 1.58a5.516 5.516 0 0 1-1.071.271 4.266 4.266 0 0 1-1.24-.056 6.543 6.543 0 0 1-1.298-.452c-.338-.17-.857-.575-1.15-.891a5.641 5.641 0 0 1-.846-1.22c-.27-.586-.304-.846-.383-2.46Z" fill="url(#b)"/><path d="M.64 9.932c.17-.497.452-1.23.643-1.614.18-.384.384-.7.429-.7.056 0 1.285.711 2.729 1.58 1.443.87 2.842 1.806 3.112 2.065.26.26.643.802.846 1.197.327.677.35.823.35 1.862 0 1.027-.023 1.196-.327 1.817-.18.372-.587.925-.902 1.241-.44.43-1.196.892-3.282 1.998-1.489.801-2.707 1.433-2.718 1.41 0-.01-.113-.225-.237-.473-.124-.249-.35-.813-.507-1.242a17.861 17.861 0 0 1-.474-1.58c-.101-.44-.135-.835-.09-.88.045-.045.97-.564 2.052-1.151 1.094-.587 1.985-1.106 2.008-1.152.011-.056-.902-.654-4.049-2.573l.057-.451c.033-.248.203-.869.36-1.354Z" fill="url(#c)"/><path d="M17.038 18.802c.282-.158.71-.35.958-.429.248-.079.846-.135 1.331-.146.53 0 1.083.067 1.41.18.293.102 1.714.903 5.762 3.375l-.473.666c-.26.372-.914 1.128-1.444 1.692-.958 1.005-.98 1.016-1.24.847a96.134 96.134 0 0 0-2.098-1.298c-1.015-.62-1.86-1.095-1.883-1.06-.023.022-.09 1.162-.237 5.021l-.564.18c-.304.102-.936.26-1.41.362-.462.09-1.184.192-2.368.305l.011-1.727c0-.948.046-2.528.102-3.521.079-1.569.124-1.896.372-2.427.158-.35.496-.869.778-1.173.271-.305.722-.689.993-.847Z" fill="url(#d)"/><path d="M5.873 19.626c1.026-.553 2.064-1.06 2.312-1.14.27-.09.857-.135 1.41-.124.845.023 1.071.08 1.804.44.553.271 1.004.587 1.286.903.236.271.552.722.688 1.005.146.27.327.733.394 1.015.113.373.113 1.276-.056 6.783l-.677-.068a22.326 22.326 0 0 1-1.297-.192c-.338-.056-1.015-.225-2.39-.598l.045-2.37c.022-1.309 0-2.404-.057-2.426-.056-.034-1.082.451-4.477 2.2l-.88-.902c-.473-.497-1.105-1.253-1.398-1.67-.293-.418-.519-.78-.507-.802.011-.022.462-.27.98-.542.53-.282 1.805-.959 2.82-1.512Z" fill="url(#e)"/><defs><radialGradient id="a" cx="0" cy="0" r="1" gradientUnits="userSpaceOnUse" gradientTransform="matrix(0 16.1552 -14.9911 0 13.346 14.333)"><stop stop-color="#5F84FF"/><stop offset="1" stop-color="#002E99"/></radialGradient><radialGradient id="b" cx="0" cy="0" r="1" gradientUnits="userSpaceOnUse" gradientTransform="matrix(0 16.1552 -14.9911 0 13.346 14.333)"><stop stop-color="#5F84FF"/><stop offset="1" stop-color="#002E99"/></radialGradient><radialGradient id="c" cx="0" cy="0" r="1" gradientUnits="userSpaceOnUse" gradientTransform="matrix(0 16.1552 -14.9911 0 13.346 14.333)"><stop stop-color="#5F84FF"/><stop offset="1" stop-color="#002E99"/></radialGradient><radialGradient id="d" cx="0" cy="0" r="1" gradientUnits="userSpaceOnUse" gradientTransform="matrix(0 16.1552 -14.9911 0 13.346 14.333)"><stop stop-color="#5F84FF"/><stop offset="1" stop-color="#002E99"/></radialGradient><radialGradient id="e" cx="0" cy="0" r="1" gradientUnits="userSpaceOnUse" gradientTransform="matrix(0 16.1552 -14.9911 0 13.346 14.333)"><stop stop-color="#5F84FF"/><stop offset="1" stop-color="#002E99"/></radialGradient></defs></svg>